<?xml version="1.0" encoding="UTF-8" standalone="no"?>
<svg
   viewBox="0 0 64 64"
   version="1.1"
   id="svg31"
   sodipodi:docname="default-folder-saved-search.svg"
   inkscape:export-filename="/home/fernando/Downloads/edit-my-dataset/share/edit-my-dataset/icons/default-folder-saved-search.png"
   inkscape:export-xdpi="192"
   inkscape:export-ydpi="192"
   inkscape:version="1.1.1 (3bf5ae0d25, 2021-09-20)"
   xmlns:inkscape="http://www.inkscape.org/namespaces/inkscape"
   xmlns:sodipodi="http://sodipodi.sourceforge.net/DTD/sodipodi-0.dtd"
   xmlns="http://www.w3.org/2000/svg"
   xmlns:svg="http://www.w3.org/2000/svg">
  <sodipodi:namedview
     id="namedview33"
     pagecolor="#ffffff"
     bordercolor="#666666"
     borderopacity="1.0"
     inkscape:pageshadow="2"
     inkscape:pageopacity="0.0"
     inkscape:pagecheckerboard="0"
     showgrid="false"
     inkscape:zoom="11.234375"
     inkscape:cx="31.955494"
     inkscape:cy="32"
     inkscape:window-width="1848"
     inkscape:window-height="1016"
     inkscape:window-x="72"
     inkscape:window-y="27"
     inkscape:window-maximized="1"
     inkscape:current-layer="svg31" />
  <defs
     id="defs7">
    <radialGradient
       id="radialGradient3964"
       cx="32.5"
       cy="56.5"
       r="33.5"
       gradientTransform="matrix(1,0,0,0.10447761,0,50.597015)"
       gradientUnits="userSpaceOnUse">
      <stop
         style="stop-color:#000;stop-opacity:1"
         id="stop2" />
      <stop
         offset="1"
         style="stop-color:#000;stop-opacity:0"
         id="stop4" />
    </radialGradient>
  </defs>
  <g
     transform="translate(0,-988.3622)"
     id="g29">
    <path
       d="m 66 56.5 c 0 1.933 -14.998 3.5 -33.5 3.5 -18.502 0 -33.5 -1.567 -33.5 -3.5 0 -1.933 14.998 -3.5 33.5 -3.5 18.502 0 33.5 1.567 33.5 3.5 z"
       transform="matrix(1.1343284,0,0,1.1428571,-4.8656716,979.79077)"
       style="fill:url(#radialGradient3964);opacity:0.6;fill-opacity:1;stroke:none"
       id="path9" />
    <path
       d="m 0 997.42 0 42.823 64 0 0 -21.412 -3.048 -18.353 l -23.952 -0.118 l -3 -6 -30.952 0 c -1.524 0 -3.048 1.529 -3.048 3.059 z"
       style="fill:#ef6c00;fill-opacity:1;stroke:none"
       id="path11" />
    <rect
       width="31.571"
       height="11.882"
       x="5"
       y="1002.36"
       style="fill:#fffdf0;fill-opacity:1;stroke:none"
       id="rect13" />
    <path
       d="M 3.0625,6 C 1.538691,6 0,7.53308 0,9.0625 l 0,2 C 0,9.53308 1.538691,8 3.0625,8 L 33,8 36,14 60.9375,14.125 64,32.46875 l 0,-2 L 60.9375,12.125 37,12 34,6 z"
       transform="translate(0,988.3622)"
       style="fill:#000;opacity:0.03;fill-opacity:1;stroke:none"
       id="path15" />
    <path
       d="m 64 1003.54 0 42.824 -64 0 0 -40 30 0 3 -6 27.952 0.118 c 1.524 0 3.048 1.529 3.048 3.059 z"
       style="fill:#ffa726;fill-opacity:1;stroke:none"
       id="path17" />
    <path
       d="m 0 1044.36 0 2 64 0 0 -2 z"
       style="fill:#000;opacity:0.15;fill-opacity:1;stroke:none"
       id="path19" />
    <path
       d="m 33 12 -3 6 -30 0 0 2 31 0 3 -6 26.938 0.125 c 1.524 0 3.063 1.533 3.063 3.063 l 0 -2 c 0 -1.529 -1.539 -3.063 -3.063 -3.063 z"
       transform="translate(0,988.3622)"
       style="fill:#000;opacity:0.03;fill-opacity:1;stroke:none"
       id="path21" />
    <g
       style="opacity:1"
       id="g27">
      <rect
         transform="matrix(0.70710678,0.70710678,-0.70710678,0.70710678,0,0)"
         rx="2"
         y="706.09"
         x="746.38"
         height="16"
         width="4"
         style="fill:#b17621;opacity:1;fill-opacity:1;stroke:none"
         id="rect23" />
      <path
         transform="translate(0,988.3622)"
         d="m 36 24 c -5.523 0 -10 4.477 -10 10 c 0 5.523 4.477 10 10 10 c 5.523 0 10 -4.477 10 -10 c 0 -5.523 -4.477 -10 -10 -10 z m 0 3 c 3.866 0 7 3.134 7 7 c 0 3.866 -3.134 7 -7 7 c -3.866 0 -7 -3.134 -7 -7 c 0 -3.866 3.134 -7 7 -7 z"
         style="fill:#b17621;opacity:1;fill-opacity:1;stroke:none"
         id="path25" />
    </g>
  </g>
</svg>
