<?xml version="1.0" encoding="UTF-8" standalone="no"?>
<svg
   width="32"
   height="32"
   viewBox="0 0 32 32"
   version="1.1"
   id="svg10"
   sodipodi:docname="exit.svg"
   inkscape:version="1.1.1 (3bf5ae0d25, 2021-09-20)"
   inkscape:export-filename="/home/fernando/Downloads/edit-my-dataset/share/edit-my-dataset/icons/exit.png"
   inkscape:export-xdpi="384"
   inkscape:export-ydpi="384"
   xmlns:inkscape="http://www.inkscape.org/namespaces/inkscape"
   xmlns:sodipodi="http://sodipodi.sourceforge.net/DTD/sodipodi-0.dtd"
   xmlns="http://www.w3.org/2000/svg"
   xmlns:svg="http://www.w3.org/2000/svg">
  <defs
     id="defs14" />
  <sodipodi:namedview
     id="namedview12"
     pagecolor="#ffffff"
     bordercolor="#666666"
     borderopacity="1.0"
     inkscape:pageshadow="2"
     inkscape:pageopacity="0.0"
     inkscape:pagecheckerboard="0"
     showgrid="false"
     inkscape:zoom="22.46875"
     inkscape:cx="15.977747"
     inkscape:cy="16"
     inkscape:window-width="1848"
     inkscape:window-height="1016"
     inkscape:window-x="72"
     inkscape:window-y="27"
     inkscape:window-maximized="1"
     inkscape:current-layer="svg10" />
  <path
     style="fill:#dc322f;fill-rule:evenodd"
     d="M 32 16.023438 C 32 24.863281 24.835938 32.027344 16 32.027344 C 7.164062 32.027344 0 24.863281 0 16.023438 C 0 7.1875 7.164062 0.0234375 16 0.0234375 C 24.835938 0.0234375 32 7.1875 32 16.023438 Z "
     id="path2" />
  <g
     style="fill:#fff;fill-opacity:.902"
     id="g8">
    <path
       d="M 18 4.046875 L 14 4.046875 L 14 16.050781 L 18 16.050781 Z "
       id="path4" />
    <path
       style="fill-rule:evenodd"
       d="M 12 4.6875 C 7.335938 6.335938 4 10.773438 4 16 C 4 22.628906 9.371094 28 16 28 C 22.628906 28 28 22.628906 28 16 C 28 10.773438 24.664062 6.335938 20 4.6875 L 20 9.125 C 22.386719 10.507812 24 13.042969 24 16 C 24 20.417969 20.417969 24 16 24 C 11.582031 24 8 20.417969 8 16 C 8 13.042969 9.613281 10.507812 12 9.125 Z "
       id="path6" />
  </g>
</svg>
