<?xml version="1.0" encoding="UTF-8" standalone="no"?>
<svg
   width="64"
   height="64"
   viewBox="0 0 64 64"
   version="1.1"
   id="svg6"
   sodipodi:docname="go-next.svg"
   inkscape:export-filename="/home/fernando/Downloads/edit-my-dataset/share/edit-my-dataset/icons/go-next.png"
   inkscape:export-xdpi="192"
   inkscape:export-ydpi="192"
   inkscape:version="1.1.1 (3bf5ae0d25, 2021-09-20)"
   xmlns:inkscape="http://www.inkscape.org/namespaces/inkscape"
   xmlns:sodipodi="http://sodipodi.sourceforge.net/DTD/sodipodi-0.dtd"
   xmlns="http://www.w3.org/2000/svg"
   xmlns:svg="http://www.w3.org/2000/svg">
  <defs
     id="defs10" />
  <sodipodi:namedview
     id="namedview8"
     pagecolor="#ffffff"
     bordercolor="#666666"
     borderopacity="1.0"
     inkscape:pageshadow="2"
     inkscape:pageopacity="0.0"
     inkscape:pagecheckerboard="0"
     showgrid="false"
     inkscape:zoom="5.6171875"
     inkscape:cx="8.9012517"
     inkscape:cy="-21.808067"
     inkscape:window-width="1848"
     inkscape:window-height="1016"
     inkscape:window-x="72"
     inkscape:window-y="27"
     inkscape:window-maximized="1"
     inkscape:current-layer="svg6" />
  <path
     style="fill:#268bd2;fill-rule:evenodd"
     d="M 64 32.003906 C 63.996094 49.675781 49.671875 64 32 64 C 14.328125 64 0.00390625 49.675781 0 32.003906 C -0.00390625 14.328125 14.324219 0 32 0 C 49.675781 0 64.003906 14.328125 64 32.003906 Z "
     id="path2" />
  <path
     style="fill:#fff;fill-opacity:.902"
     d="M 32.625 12.011719 C 30.765625 11.953125 29.097656 13.011719 28.375 14.761719 C 27.652344 16.515625 28.042969 18.566406 29.375 19.886719 L 37.25 28.011719 L 12 28.011719 L 12 36.011719 L 37.25 36.011719 L 29.375 44.136719 C 27.621094 45.9375 27.621094 48.839844 29.375 50.636719 C 31.128906 52.4375 33.996094 52.4375 35.75 50.636719 L 50.625 35.261719 C 51.476562 34.398438 52 33.238281 52 32.011719 C 52 30.789062 51.476562 29.628906 50.625 28.761719 L 35.75 13.386719 C 34.945312 12.535156 33.792969 12.050781 32.625 12.011719 Z "
     id="path4" />
</svg>
