<?xml version="1.0" encoding="UTF-8" standalone="no"?>
<svg
   width="64"
   height="64"
   viewBox="0 0 64 64"
   version="1.1"
   id="svg6"
   sodipodi:docname="go-previous.svg"
   inkscape:export-filename="/home/fernando/Downloads/edit-my-dataset/share/edit-my-dataset/icons/go-previous.png"
   inkscape:export-xdpi="192"
   inkscape:export-ydpi="192"
   inkscape:version="1.1.1 (3bf5ae0d25, 2021-09-20)"
   xmlns:inkscape="http://www.inkscape.org/namespaces/inkscape"
   xmlns:sodipodi="http://sodipodi.sourceforge.net/DTD/sodipodi-0.dtd"
   xmlns="http://www.w3.org/2000/svg"
   xmlns:svg="http://www.w3.org/2000/svg">
  <defs
     id="defs10" />
  <sodipodi:namedview
     id="namedview8"
     pagecolor="#ffffff"
     bordercolor="#666666"
     borderopacity="1.0"
     inkscape:pageshadow="2"
     inkscape:pageopacity="0.0"
     inkscape:pagecheckerboard="0"
     showgrid="false"
     inkscape:zoom="11.234375"
     inkscape:cx="31.955494"
     inkscape:cy="32"
     inkscape:window-width="1848"
     inkscape:window-height="1016"
     inkscape:window-x="72"
     inkscape:window-y="27"
     inkscape:window-maximized="1"
     inkscape:current-layer="svg6" />
  <path
     style="fill:#268bd2;fill-rule:evenodd"
     d="M 0 32.003906 C 0.00390625 49.675781 14.328125 64 32 64 C 49.671875 64 63.996094 49.675781 64 32.003906 C 64.003906 14.328125 49.675781 0 32 0 C 14.324219 0 -0.00390625 14.328125 0 32.003906 Z "
     id="path2" />
  <path
     style="fill:#fff;fill-opacity:.902"
     d="M 31.375 12.011719 C 33.234375 11.953125 34.902344 13.011719 35.625 14.761719 C 36.347656 16.515625 35.957031 18.566406 34.625 19.886719 L 26.75 28.011719 L 52 28.011719 L 52 36.011719 L 26.75 36.011719 L 34.625 44.136719 C 36.378906 45.9375 36.378906 48.839844 34.625 50.636719 C 32.871094 52.4375 30.003906 52.4375 28.25 50.636719 L 13.375 35.261719 C 12.523438 34.398438 12 33.238281 12 32.011719 C 12 30.789062 12.523438 29.628906 13.375 28.761719 L 28.25 13.386719 C 29.054688 12.535156 30.207031 12.050781 31.375 12.011719 Z "
     id="path4" />
</svg>
